<?xml version="1.0" encoding="utf-8"?>
<svg version="1.1" id="Layer_1" xmlns="http://www.w3.org/2000/svg" xmlns:xlink="http://www.w3.org/1999/xlink" x="0px" y="0px"
	 viewBox="0 0 2237.333 1641.252" enable-background="new 0 0 2237.333 1641.252" xml:space="preserve">
<g>
	<rect x="28.117" y="1559.413" width="2181.1" height="61.213"/>
	<path d="M1827.443,1440.21h233.574v-128.869h-211.022l-9.665-328.615c0,0,14.498-46.715,61.213-46.715l-3.222-88.597h-455.872
		v107.927h-315.728c0,0-14.498-74.099-98.262-74.099s-88.597,77.321-88.597,77.321l-260.959-1.611l-3.222-107.927H493.654v107.927
		H318.071c0,0-67.656,124.036-8.054,267.402h88.597l-45.104,88.597H185.981v132.09h101.484
		c18.196,62.662,67.522,111.059,144.977,115.982c82.004,5.211,136.473-41.532,151.42-114.371l115.982,1.61
		c21.803,68.143,70.86,116.41,146.588,117.593c81.111,1.267,133.349-46.581,149.81-119.203h114.371
		c22.727,67.47,71.467,118.176,154.642,115.982c83.222-2.196,131.959-51.864,148.199-120.814h115.982
		c22.168,64.832,67.295,122.738,156.253,120.814C1759.411,1561.041,1806.754,1511.146,1827.443,1440.21z"/>
	<path d="M743.638,733.657c10.36,0.621,122.465,32.809,173.378-37.979c8.14-11.172,11.195-26.426,22.654-34.9
		c93.707,13.663,117.304-32.275,128.333-34.924c71.206,41.134,101.89,49.444,186.483-1.026
		c21.842-13.201,41.393-31.176,53.448-53.902c4.917-6.684,10.193-16.949,19.98-15.636c13.726,6.899,25.184,18.023,40.104,22.678
		c198.633,64.039,308.06-215.28,148.217-293.761c-22.156-13.033,67.54-201.985-180.086-259.267
		c-175.557-29.225-275.063,96.246-278.078,188.87c-6.189,32.777,2.229,82.023,2.817,92.502
		c-33.383,13.757-30.239,26.061-47.862,41.059c-161.745-67.088-257.032,24.802-242.915,132.987
		c-207.31-31.7-199.488,92.385-208.541,163.113c-2.578,19.336,11.387,35.974,12.27,54.809
		c-4.028,11.806-57.173,28.069-60.634,68.606c-9.835,23.991-4.965,51.705,6.947,74.049c3.307,4.94,8.469,8.25,12.123,12.923h117.573
		C672.353,809.637,728.813,738.668,743.638,733.657z"/>
</g>
</svg>
